<svg xmlns="http://www.w3.org/2000/svg" xmlns:xlink="http://www.w3.org/1999/xlink" width="271.69" height="84.126" viewBox="0 0 271.69 84.126">
  <defs>
    <clipPath id="clip-path">
      <rect id="Rectangle_51" data-name="Rectangle 51" width="271.69" height="84.126" transform="translate(0 0)" fill="none"/>
    </clipPath>
  </defs>
  <g id="Group_73" data-name="Group 73" transform="translate(0 0)">
    <g id="Group_72" data-name="Group 72" clip-path="url(#clip-path)">
      <path id="Path_10" data-name="Path 10" d="M31.109,84.107C13.454,84.107,0,71.741,0,49.731,0,23.443,19.365.888,41.92.888c14.777,0,26.131,9.645,26.131,21.233q0,7.233-5.833,7.233C50.007,29.354,59.652,4.7,41.92,4.7c-16.567,0-29.71,21.465-29.71,42.853C12.21,64.586,20.3,75.4,35.62,75.4c12.288,0,19.988-7.155,24.343-16.8L63.229,60c-5.443,14.544-16.565,24.11-32.12,24.11"/>
      <path id="Path_11" data-name="Path 11" d="M136.677,78.3a6.575,6.575,0,0,1-1,.134c-3.418.16-4.432-3.111-4.432-6.766a40.918,40.918,0,0,1,.933-7.622L145.169,2.523H134.28l-2.256,10.422c-4.044-7.934-11.2-12.056-21-12.056C84.815.889,68.1,29.51,68.1,53.309c0,16.722,8.244,30.8,24.5,30.8,11.432,0,21.464-7,28.153-16.877a25.177,25.177,0,0,0-.311,4.122c0,7.466,3.51,13.136,11.044,12.755a17.586,17.586,0,0,0,5.2-1.057Zm-8.852-45.441L121.68,61.942c-6.221,8.166-13.532,14.544-22.865,14.544-12.288,0-18.511-11.2-18.511-25.51,0-21,13.222-46.353,31.266-46.353,10.811,0,17.032,9.1,17.032,20.765a35.871,35.871,0,0,1-.777,7.467"/>
      <rect id="Rectangle_48" data-name="Rectangle 48" width="11.15" height="80.283" transform="translate(149.325 1.912)"/>
      <path id="Path_12" data-name="Path 12" d="M165.827,82.194V1.911h10.035l.638,14.337A27.629,27.629,0,0,1,187.57,4.221,31.549,31.549,0,0,1,203.738,0a33.626,33.626,0,0,1,16.089,3.664A25.361,25.361,0,0,1,230.5,14.734q3.822,7.409,3.822,19.035V82.194h-11.15V35.044q0-12.9-5.575-19.116T201.668,9.716A23.97,23.97,0,0,0,189,13.141a23.235,23.235,0,0,0-8.84,9.876q-3.189,6.452-3.187,16.168V82.194Z"/>
      <rect id="Rectangle_49" data-name="Rectangle 49" width="11.15" height="80.283" transform="translate(241.763 1.912)"/>
      <rect id="Rectangle_50" data-name="Rectangle 50" width="11.15" height="80.283" transform="translate(260.539 1.912)"/>
    </g>
  </g>
</svg>
